<svg width="57" height="56" viewBox="0 0 57 56" fill="none" xmlns="http://www.w3.org/2000/svg">
    <path d="M56.3666 52.9507C55.2066 46.9891 54.3496 33.1834 54.3496 33.1834H45.8846C45.8846 33.1834 42.1224 45.8386 41.9134 47.5121C41.7044 49.1855 44.0035 55.67 44.0035 55.67H56.9205C56.701 54.7705 56.5129 53.8711 56.3666 52.9507Z" fill="#0F0F0F"/>
    <path d="M42.1049 33.1786C40.7275 36.4814 38.2473 39.2183 35.0773 40.9338C31.9073 42.6493 28.2385 43.24 24.6817 42.6075C21.1248 41.9749 17.8943 40.1574 15.5278 37.4573C13.1613 34.7573 11.8016 31.3375 11.6749 27.7672C11.5483 24.1969 12.6623 20.6914 14.8315 17.8341C17.0008 14.9768 20.0946 12.94 23.5979 12.0627C27.1012 11.1854 30.8028 11.5205 34.0866 13.0122C37.3704 14.5039 40.0384 17.0623 41.6466 20.2616H54.109C52.3945 13.8326 48.3568 8.24715 42.7591 4.56127C37.1613 0.875388 30.3915 -0.655524 23.7294 0.257942C17.0673 1.17141 10.9745 4.46595 6.60297 9.51875C2.23141 14.5716 -0.116029 21.0325 0.00441516 27.6801C0.12486 34.3277 2.70484 40.7014 7.25664 45.5962C11.8084 50.4911 18.0166 53.5678 24.7075 54.2449C31.3985 54.9219 38.1085 53.1523 43.5691 49.2707C49.0297 45.389 52.8626 39.6642 54.343 33.1786H42.1049Z" fill="#1D1D1D"/>
</svg>
