<svg width="57" height="56" viewBox="0 0 57 56" fill="none" xmlns="http://www.w3.org/2000/svg">
    <path d="M56.3666 52.9513C55.2066 46.9885 54.3496 33.18 54.3496 33.18H45.8846C45.8846 33.18 42.1224 45.8378 41.9134 47.5116C41.7044 49.1853 44.0035 55.6711 44.0035 55.6711H56.9205C56.701 54.7715 56.5129 53.8718 56.3666 52.9513Z" fill="#E7E3DE"/>
    <path d="M42.1049 33.1852C40.7275 36.4887 38.2473 39.2262 35.0773 40.942C31.9073 42.6579 28.2385 43.2486 24.6817 42.616C21.1248 41.9833 17.8943 40.1654 15.5278 37.4648C13.1613 34.7642 11.8016 31.3438 11.6749 27.7728C11.5483 24.2018 12.6623 20.6956 14.8315 17.8377C17.0008 14.9798 20.0946 12.9426 23.5979 12.0651C27.1012 11.1876 30.8028 11.5228 34.0866 13.0148C37.3704 14.5068 40.0384 17.0658 41.6466 20.2657H54.109C52.3945 13.8353 48.3568 8.2488 42.7591 4.56218C37.1613 0.875564 30.3915 -0.655655 23.7294 0.257994C17.0673 1.17164 10.9745 4.46684 6.60297 9.52066C2.23141 14.5745 -0.116029 21.0367 0.00441516 27.6856C0.12486 34.3346 2.70484 40.7096 7.25664 45.6054C11.8084 50.5012 18.0166 53.5785 24.7075 54.2557C31.3985 54.9329 38.1085 53.163 43.5691 49.2805C49.0297 45.3981 52.8626 39.6722 54.343 33.1852H42.1049Z" fill="#F2F0ED"/>
</svg>
