<svg width="78" height="78" viewBox="0 0 78 78" fill="none" xmlns="http://www.w3.org/2000/svg">
    <rect x="0.5" y="0.5" width="77" height="77" rx="11.5" fill="#F2F0ED" stroke="#EFEEEE"/>
    <path d="M67.3666 63.9613C66.2066 57.9985 65.3496 44.19 65.3496 44.19H56.8846C56.8846 44.19 53.1224 56.8478 52.9134 58.5216C52.7044 60.1953 55.0035 66.6811 55.0035 66.6811H67.9205C67.701 65.7815 67.5129 64.8818 67.3666 63.9613Z" fill="#0F0F0F"/>
    <path d="M53.1049 44.1852C51.7275 47.4887 49.2473 50.2262 46.0773 51.942C42.9073 53.6579 39.2385 54.2486 35.6817 53.616C32.1248 52.9833 28.8943 51.1654 26.5278 48.4648C24.1613 45.7642 22.8016 42.3438 22.6749 38.7728C22.5483 35.2018 23.6623 31.6956 25.8315 28.8377C28.0008 25.9798 31.0946 23.9426 34.5979 23.0651C38.1012 22.1876 41.8028 22.5228 45.0866 24.0148C48.3704 25.5068 51.0384 28.0658 52.6466 31.2657H65.109C63.3945 24.8353 59.3568 19.2488 53.7591 15.5622C48.1613 11.8756 41.3915 10.3443 34.7294 11.258C28.0673 12.1716 21.9745 15.4668 17.603 20.5207C13.2314 25.5745 10.884 32.0367 11.0044 38.6856C11.1249 45.3346 13.7048 51.7096 18.2566 56.6054C22.8084 61.5012 29.0166 64.5785 35.7075 65.2557C42.3985 65.9329 49.1085 64.163 54.5691 60.2805C60.0297 56.3981 63.8626 50.6722 65.343 44.1852H53.1049Z" fill="#1D1D1D"/>
</svg>
